<svg width="57" height="58" viewBox="0 0 57 58" fill="none" xmlns="http://www.w3.org/2000/svg">
<path d="M56.96 29.0566C56.96 44.7622 44.2281 57.4941 28.5225 57.4941C12.8169 57.4941 0.0849609 44.7622 0.0849609 29.0566C0.0849609 13.351 12.8169 0.619141 28.5225 0.619141C44.2281 0.619141 56.96 13.351 56.96 29.0566Z" fill="white"/>
<path d="M18.2461 22.3597C18.2461 19.9364 20.2106 17.9719 22.6338 17.9719C25.0571 17.9719 27.0216 19.9364 27.0216 22.3597V35.7535C27.0216 38.1768 25.0571 40.1412 22.6338 40.1412C20.2106 40.1412 18.2461 38.1768 18.2461 35.7535V22.3597Z" fill="#0F0F54"/>
<path d="M30.0234 22.3597C30.0234 19.9364 31.9879 17.9719 34.4112 17.9719C36.8345 17.9719 38.7989 19.9364 38.7989 22.3597V35.7535C38.7989 38.1768 36.8345 40.1412 34.4112 40.1412C31.9879 40.1412 30.0234 38.1768 30.0234 35.7535V22.3597Z" fill="#0F0F54"/>
</svg>
